<svg width="40" height="40" viewBox="0 0 40 40" fill="none" xmlns="http://www.w3.org/2000/svg">
<g id="ri:shopping-bag-fill">
<path id="Vector" d="M20.0084 1.66666C21.1027 1.66666 22.1863 1.8822 23.1974 2.30099C24.2084 2.71978 25.1271 3.33361 25.9009 4.10743C26.6747 4.88125 27.2886 5.79991 27.7074 6.81096C28.1261 7.82201 28.3417 8.90564 28.3417 9.99999V13.3333H33.3417C33.7837 13.3333 34.2076 13.5089 34.5202 13.8215C34.8328 14.134 35.0084 14.558 35.0084 15V35C35.0084 35.442 34.8328 35.8659 34.5202 36.1785C34.2076 36.4911 33.7837 36.6667 33.3417 36.6667H6.67503C6.233 36.6667 5.80908 36.4911 5.49652 36.1785C5.18396 35.8659 5.00836 35.442 5.00836 35V15C5.00836 14.558 5.18396 14.134 5.49652 13.8215C5.80908 13.5089 6.233 13.3333 6.67503 13.3333H11.675V9.99999C11.675 7.78985 12.553 5.67024 14.1158 4.10743C15.6786 2.54463 17.7982 1.66666 20.0084 1.66666ZM28.3417 18.3333H25.0084V20C25.0093 20.4246 25.1722 20.833 25.464 21.1415C25.7557 21.4501 26.1542 21.6357 26.5782 21.6603C27.0021 21.685 27.4195 21.5469 27.7451 21.2743C28.0707 21.0017 28.2799 20.615 28.33 20.1933L28.3417 19.9983V18.3317V18.3333ZM15.0084 18.3333H11.675V20C11.6759 20.4246 11.8389 20.833 12.1306 21.1415C12.4224 21.4501 12.8209 21.6357 13.2448 21.6603C13.6688 21.685 14.0862 21.5469 14.4117 21.2743C14.7373 21.0017 14.9465 20.615 14.9967 20.1933L15.0084 20V18.3333ZM20.0084 4.99999C18.7333 4.99989 17.5063 5.48694 16.5785 6.36152C15.6506 7.2361 15.0919 8.43213 15.0167 9.70499L15.0084 9.99999V13.3333H25.0084V9.99999C25.0084 8.72464 24.5212 7.49746 23.6462 6.56955C22.7713 5.64164 21.5748 5.08314 20.3017 5.00832L20.0084 4.99999Z" fill="#FCC21B"/>
</g>
</svg>
